<svg width="231" height="228" fill="none" xmlns="http://www.w3.org/2000/svg"><g filter="url(#filter0_d_9010_186158)"><path d="M118 98l26.069-14.348c-.022.422-.011.417 0 0 .029.258 1.414-1.448 1.931-1.913-1.363-.837-7.935-2.641-19.31-5.739-5.82 14.083-8.581 21.416-8.69 22zm37.652 68.053c.21.539.098.679 0 .947-.277.008-.594.079-.956 0-.159-.396-30.959-45.567-35.392-53.027-.2-.001-10.431 3.849-12.434 4.735-.457.704-32.97 45.539-33.479 45.451-.313-.364 12.125-30.145 37.305-89.955L60 64.734c10.45-2.076 15.872-3.133 16.26-2.84.124-.223 12.37-.775 36.349-1.894 39.389 4.677 58.375 9.94 57.391 16.097-1.574 8.463-32.085 26.477-35.391 28.407.234.392 21.105 61.173 21.043 61.549z" fill="#151B20" fill-opacity=".01" shape-rendering="crispEdges"/></g><defs><filter id="filter0_d_9010_186158" x="0" y="0" width="230.036" height="227.037" filterUnits="userSpaceOnUse" color-interpolation-filters="sRGB"><feFlood flood-opacity="0" result="BackgroundImageFix"/><feColorMatrix in="SourceAlpha" values="0 0 0 0 0 0 0 0 0 0 0 0 0 0 0 0 0 0 127 0" result="hardAlpha"/><feOffset/><feGaussianBlur stdDeviation="30"/><feComposite in2="hardAlpha" operator="out"/><feColorMatrix values="0 0 0 0 0.34902 0 0 0 0 0.403922 0 0 0 0 1 0 0 0 0.4 0"/><feBlend in2="BackgroundImageFix" result="effect1_dropShadow_9010_186158"/><feBlend in="SourceGraphic" in2="effect1_dropShadow_9010_186158" result="shape"/></filter></defs></svg>