<?xml version="1.0" encoding="utf-8"?>
<!-- Generator: Adobe Illustrator 25.4.1, SVG Export Plug-In . SVG Version: 6.00 Build 0)  -->
<svg version="1.1" id="Layer_1" xmlns="http://www.w3.org/2000/svg" xmlns:xlink="http://www.w3.org/1999/xlink" x="0px" y="0px"
	 viewBox="0 0 274.8 241.5" style="enable-background:new 0 0 274.8 241.5;" xml:space="preserve">
<style type="text/css">
	.st0{fill-rule:evenodd;clip-rule:evenodd;fill:#171B20;}
	.st1{fill:#FFFFFF;}
	.st2{fill-rule:evenodd;clip-rule:evenodd;fill:#FFFFFF;}
	.st3{fill-rule:evenodd;clip-rule:evenodd;fill:#E9473C;}
</style>
<g>
	<polygon class="st0" points="93.4,71.4 35.5,57.5 8.4,25 116.5,4.5 209.5,9.5 269.1,41.6 251.6,84.3 203,114.8 242.6,232.4 
		184.5,225 139.7,151.5 88.8,222.6 34.4,235.3 	"/>
	<path class="st1" d="M116.8,9l91.4,4.9l55.2,29.7L248,81.3l-50.4,31.6L236,227l-48.8-6.2L140,143.3l-53.9,75.3L41.5,229L99.3,68.2
		L38,53.5L16.7,28L116.8,9 M116.2,0l-1.1,0.2l-100,19L0,22l9.8,11.8l21.3,25.4l1.9,2.3l2.9,0.7l51.6,12.4L33,226l-5.6,15.6l16.1-3.7
		l44.6-10.4l3.3-0.8l2-2.8l46-64.2l40.2,65.9l2.3,3.7l4.3,0.5l48.8,6.2l14.2,1.8l-4.6-13.6l-36.2-107.5l44.3-27.8l2.4-1.5l1.1-2.7
		L271.8,47l3.1-7.5l-7.1-3.8L212.5,6l-1.8-1l-2-0.1l-91.4-4.9L116.2,0L116.2,0z"/>
</g>
<g id="Group-51" transform="translate(388,38.911)">
	<path id="Shape" class="st3" d="M-240.6,49.9l43.5-22.1c0,0,0,0,0.1,0c0.1-0.2,2.4-3,3.2-4.2c-2.3-0.8-13.2-3.7-32.9-8.6
		C-235.8,37.3-240.4,48.9-240.6,49.9z M-198.3,112.2c1.5,5.3,18.9,54.7,19.1,55.5c0.1,0.1,0.1,0.2,0.1,0.4l0,0c0,0,0,0,0,0.1
		c0,0.3-0.2,0.5-0.5,0.7c-0.4,0.3-0.9,0.4-1.3,0.1c-0.5-0.5-51.4-76.4-58.7-89c-0.4,0-17.3,6.5-21,8.1c-0.3,1.1-54,76.5-54.6,76.5
		c-0.3,0-0.5-0.3-0.6-0.5c-0.3-0.2,20.3-50.3,61.7-150.3l-83.4-16.6c17.3-3.6,26.2-5.4,26.9-5.3c0.2,0,20.4-0.9,60.7-2.8
		c64.5,7.9,95.8,16.7,94.1,26.6c-2.5,14.8-53,45.1-58.5,48.4c0.5,0.6,7.1,20.3,7.7,22.3L-198.3,112.2z"/>
</g>
</svg>
