<svg version="1.1" id="Layer_1" xmlns="http://www.w3.org/2000/svg" x="0" y="0" viewBox="0 0 274.8 241.5" xml:space="preserve"><style/><path fill-rule="evenodd" clip-rule="evenodd" fill="#171b20" d="M93.4 71.4L35.5 57.5 8.4 25 116.5 4.5l93 5 59.6 32.1-17.5 42.7-48.6 30.5 39.6 117.6-58.1-7.4-44.8-73.5-50.9 71.1-54.4 12.7z"/><path d="M116.8 9l91.4 4.9 55.2 29.7L248 81.3l-50.4 31.6L236 227l-48.8-6.2-47.2-77.5-53.9 75.3L41.5 229 99.3 68.2 38 53.5 16.7 28 116.8 9m-.6-9l-1.1.2-100 19L0 22l9.8 11.8 21.3 25.4 1.9 2.3 2.9.7 51.6 12.4L33 226l-5.6 15.6 16.1-3.7 44.6-10.4 3.3-.8 2-2.8 46-64.2 40.2 65.9 2.3 3.7 4.3.5L235 236l14.2 1.8-4.6-13.6-36.2-107.5 44.3-27.8 2.4-1.5 1.1-2.7L271.8 47l3.1-7.5-7.1-3.8L212.5 6l-1.8-1-2-.1L117.3 0h-1.1z" fill="#fff"/><g id="Group-51" transform="translate(388 38.911)"><path id="Shape" d="M-240.6 49.9l43.5-22.1h.1c.1-.2 2.4-3 3.2-4.2-2.3-.8-13.2-3.7-32.9-8.6-9.1 22.3-13.7 33.9-13.9 34.9zm42.3 62.3c1.5 5.3 18.9 54.7 19.1 55.5.1.1.1.2.1.4v.1c0 .3-.2.5-.5.7-.4.3-.9.4-1.3.1-.5-.5-51.4-76.4-58.7-89-.4 0-17.3 6.5-21 8.1-.3 1.1-54 76.5-54.6 76.5-.3 0-.5-.3-.6-.5-.3-.2 20.3-50.3 61.7-150.3l-83.4-16.6c17.3-3.6 26.2-5.4 26.9-5.3.2 0 20.4-.9 60.7-2.8 64.5 7.9 95.8 16.7 94.1 26.6-2.5 14.8-53 45.1-58.5 48.4.5.6 7.1 20.3 7.7 22.3l8.3 25.8z" fill-rule="evenodd" clip-rule="evenodd" fill="#e9473c"/></g></svg>