<svg width="48" height="48" fill="none" xmlns="http://www.w3.org/2000/svg"><path d="M34.467 30.656a9.546 9.546 0 00-9.4-8.156h-2.128a9.546 9.546 0 00-9.4 8.156l-1.02 7.132a1.5 1.5 0 00.426 1.272c.4.4 2.854 2.44 11.06 2.44s10.654-2.032 11.06-2.44a1.501 1.501 0 00.426-1.272l-1.024-7.132zM15.12 23.6a11.4 11.4 0 00-3.56 6.78l-.74 5.12c-5.94-.04-7.74-2.2-8.04-2.64a1.479 1.479 0 01-.26-1.12l.44-2.48a8.186 8.186 0 0112.16-5.66zm30.36 8.14a1.479 1.479 0 01-.26 1.12c-.3.44-2.1 2.6-8.04 2.64l-.74-5.12a11.4 11.4 0 00-3.56-6.78 8.185 8.185 0 0112.16 5.66l.44 2.48zM15.46 19.2A5.427 5.427 0 0111 21.5a5.5 5.5 0 113.3-9.9A9.66 9.66 0 0014 14a10.02 10.02 0 001.46 5.2zM42.5 16a5.497 5.497 0 01-5.5 5.5 5.428 5.428 0 01-4.46-2.3A10.021 10.021 0 0034 14c0-.81-.1-1.616-.3-2.4a5.5 5.5 0 018.8 4.4zM24 21.5a7.5 7.5 0 100-15 7.5 7.5 0 000 15z" fill="#fff"/></svg>